<svg xmlns="http://www.w3.org/2000/svg" width="1550.863" height="555.339" viewBox="0 0 1550.863 555.339">
    <defs>
        <style>
            .prefix__cls-2{fill:none;stroke:#fff;stroke-miterlimit:10;stroke-width:2px}
        </style>
    </defs>
    <g id="prefix__Group_1401" data-name="Group 1401" transform="translate(-17.137 9359.82)" style="opacity:.8">
        <path id="prefix__Path_3614" d="M658.135 78.68a14 14 0 0 0 4.117-.22 10.072 10.072 0 0 0 3.021-1.431c2.594-1.717 4.692-4.071 7.067-6.082a8.876 8.876 0 0 1 2.57-1.654 7.665 7.665 0 0 1 3.534-.3 15.107 15.107 0 0 1 7.781 3.266A10.139 10.139 0 0 1 689.8 77.4a14.161 14.161 0 0 1 .342 3.4q.027 1.875-.011 3.75l-.185-.378" class="prefix__cls-2" data-name="Path 3614" transform="translate(-38.617 -9408.451)"/>
        <path id="prefix__Path_3615" d="M657.635 81.285c-.734.247-.845 1.271-.575 2a5.816 5.816 0 0 0 2.739 2.782 12.763 12.763 0 0 0 7.879 1.748 9.177 9.177 0 0 0 6.719-4.225c.165-.278.375-.607.7-.6a.892.892 0 0 1 .3.074l4.837 1.828" class="prefix__cls-2" data-name="Path 3615" transform="translate(-38.358 -9410.815)"/>
        <path id="prefix__Path_3616" d="M685.543 85.219l1.557-2.058a4.724 4.724 0 0 1 1.374-1.372 2.868 2.868 0 0 1 3.468.829 4.484 4.484 0 0 1 .751 3.677c-.019.1-.035.213.037.279a.288.288 0 0 0 .14.057l2.3.474" class="prefix__cls-2" data-name="Path 3616" transform="translate(-43.909 -9410.857)"/>
        <path id="prefix__Path_3617" d="M689.217 87.853a2.253 2.253 0 0 1 .961-2.192" class="prefix__cls-2" data-name="Path 3617" transform="translate(-44.598 -9411.653)"/>
        <path id="prefix__Path_3618" d="M669.2 90.173l.984 5.21a.751.751 0 0 0 .2.451.712.712 0 0 0 .565.084 7.838 7.838 0 0 0 2.171-.645 1.466 1.466 0 0 1 1.15-.21 1.319 1.319 0 0 1 .5.474q1.465 1.994 2.886 4.021c.166.236.371.5.659.508a.932.932 0 0 0 .495-.174 39.012 39.012 0 0 0 6.548-4.826" class="prefix__cls-2" data-name="Path 3618" transform="translate(-40.736 -9412.516)"/>
        <path id="prefix__Path_3619" d="M685.247 99.705a24.619 24.619 0 0 0 1.833 8.507 1.554 1.554 0 0 0 .306.526 1.518 1.518 0 0 0 .617.323 14.344 14.344 0 0 0 8.955.254 9.806 9.806 0 0 0 6.337-6.083" class="prefix__cls-2" data-name="Path 3619" transform="translate(-43.873 -9414.339)"/>
        <path id="prefix__Path_3620" d="M697.619 88.96c.452 2.628 2.227 4.8 3.939 6.844l4.418 5.273" class="prefix__cls-2" data-name="Path 3620" transform="translate(-46.261 -9412.283)"/>
        <path id="prefix__Path_3621" d="M661.314 122.581c3.075-3.529 4.6-8.205 7.7-11.715a30.028 30.028 0 0 1 4.272-3.8 10.478 10.478 0 0 1 2.891-1.749 10.887 10.887 0 0 1 4.462-.242" class="prefix__cls-2" data-name="Path 3621" transform="translate(-39.205 -9415.345)"/>
        <path id="prefix__Path_3622" d="M672.89 121.573q-.393 4.759-1.1 9.484a39.2 39.2 0 0 1-.982 4.9 45.391 45.391 0 0 1-3.818 8.635" class="prefix__cls-2" data-name="Path 3622" transform="translate(-40.279 -9418.521)"/>
        <path id="prefix__Path_3623" d="M633.094 162.264a3.67 3.67 0 0 0 1.942 2.3 7.974 7.974 0 0 0 3.642.412c3.268-.091 6.777.3 9.28 2.41l1.3-3.478a24.534 24.534 0 0 0-2.96-2.386" class="prefix__cls-2" data-name="Path 3623" transform="translate(-33.692 -9424.861)"/>
        <path id="prefix__Path_3624" d="M650.214 169.084q-.378 2.218-.866 4.416" class="prefix__cls-2" data-name="Path 3624" transform="translate(-36.828 -9426.229)"/>
        <path id="prefix__Path_3625" d="M653.442 164.469a6.629 6.629 0 0 1 2.834-3.5" class="prefix__cls-2" data-name="Path 3625" transform="translate(-37.631 -9424.77)"/>
        <path id="prefix__Path_3626" d="M656.6 177.758a14.181 14.181 0 0 0-.911 3.354 2.773 2.773 0 0 0 .107 1.558 2.913 2.913 0 0 0 .873.972 37.016 37.016 0 0 0 18.983 7.574 62.659 62.659 0 0 0 20.565-1.392 1.766 1.766 0 0 0 .883-.374 1.716 1.716 0 0 0 .391-.8 23.608 23.608 0 0 0 .848-5.743" class="prefix__cls-2" data-name="Path 3626" transform="translate(-38.155 -9427.758)"/>
        <path id="prefix__Path_3627" d="M694.223 197.435a12.739 12.739 0 0 0 2.345 5.978 31.084 31.084 0 0 0 4.341 4.808c.157.148.328.336.289.548" class="prefix__cls-2" data-name="Path 3627" transform="translate(-45.595 -9431.309)"/>
        <path id="prefix__Path_3628" d="M660.317 211.966a101.053 101.053 0 0 0 24.343 1.722c.462-.023 1.04-.143 1.14-.6" class="prefix__cls-2" data-name="Path 3628" transform="translate(-39.027 -9433.965)"/>
        <path id="prefix__Path_3629" d="M600.562 356.754q12.88-.8 25.78-1.184a9.61 9.61 0 0 0-.386-4.224" class="prefix__cls-2" data-name="Path 3629" transform="translate(-27.365 -9459.058)"/>
        <path id="prefix__Path_3630" d="M600.661 356.852a7.278 7.278 0 0 1 4.573-4.016 22.536 22.536 0 0 1 6.2-.89q7.064-.375 14.106-1.076" class="prefix__cls-2" data-name="Path 3630" transform="translate(-27.382 -9458.967)"/>
        <path id="prefix__Path_3631" d="M693.293 377.969l.358-2.732 6.253-.421a51.606 51.606 0 0 1 8.978-.083 17.3 17.3 0 0 1 8.383 2.959" class="prefix__cls-2" data-name="Path 3631" transform="translate(-45.458 -9463.257)"/>
        <path id="prefix__Path_3632" d="M692.288 379.229c8.6-.484 40-.441 48.59.131" class="prefix__cls-2" data-name="Path 3632" transform="translate(-45.331 -9464.062)"/>
        <path id="prefix__Path_3633" d="M705.847 130.456q-4.12 14.488-7.237 29.238" class="prefix__cls-2" data-name="Path 3633" transform="translate(-46.451 -9419.21)"/>
        <path id="prefix__Path_3634" d="M707.283 104.6c.95 2.229 3.609 3.031 5.826 4a40.011 40.011 0 0 1 8.641 5.728c2.467 1.963 5.089 4.166 5.785 7.243.594 2.625-.353 5.325-1.259 7.859Q721.93 141.577 718.4 154c-.941 3.306-1.869 6.7-3.821 9.524s-5.174 5.034-8.6 4.793" class="prefix__cls-2" data-name="Path 3634" transform="translate(-47.928 -9415.274)"/>
        <path id="prefix__Path_3635" d="M649.38 175.5c10.26 1.875 20.2 5.493 30.582 6.5a120.317 120.317 0 0 0 12.713.343 13.887 13.887 0 0 0 5.793-.886" class="prefix__cls-2" data-name="Path 3635" transform="translate(-36.951 -9427.375)"/>
        <path id="prefix__Path_3636" d="M656.727 161.157c11.373 1.969 23.017 2.1 34.346 4.313" class="prefix__cls-2" data-name="Path 3636" transform="translate(-38.348 -9424.8)"/>
        <path id="prefix__Path_3637" d="M605.908 117.419q21.787-1.245 43.626-.832" class="prefix__cls-2" data-name="Path 3637" transform="translate(-28.447 -9417.547)"/>
        <path id="prefix__Path_3638" d="M605.611 117.627c1.085 8.657 5.084 16.7 6.59 25.294.5 2.841.726 5.754 1.69 8.472l-.146-1.342" class="prefix__cls-2" data-name="Path 3638" transform="translate(-28.314 -9417.768)"/>
        <path id="prefix__Path_3639" d="M659.876 117.056c1.122 11.464 5.471 22.4 6.819 33.843l-.045-1.295" class="prefix__cls-2" data-name="Path 3639" transform="translate(-38.894 -9417.658)"/>
        <path id="prefix__Path_3640" d="M655.65 117.762c.2 5.064 2.506 9.762 4.125 14.564a55.017 55.017 0 0 1 2.859 18.92 2.864 2.864 0 0 0 .351-1.956" class="prefix__cls-2" data-name="Path 3640" transform="translate(-38.072 -9417.792)"/>
        <path id="prefix__Path_3641" d="M615.919 159.83q25.229-1.057 50.49-.58" class="prefix__cls-2" data-name="Path 3641" transform="translate(-30.418 -9424.44)"/>
        <path id="prefix__Path_3642" d="M615.372 160.188v2.315c16.683-2.943 33.771-2.181 50.689-1.314l-.013-1.793" class="prefix__cls-2" data-name="Path 3642" transform="translate(-30.312 -9424.486)"/>
        <path id="prefix__Path_3643" d="M634.4 135.438a2.9 2.9 0 0 0-2.932-.131 4.319 4.319 0 0 0-2.109 1.865 3.074 3.074 0 0 0-.1 2.763 3.817 3.817 0 0 0 2.616 1.817 4.7 4.7 0 0 0 4.2-.854 2.992 2.992 0 0 0 .453-4 4.091 4.091 0 0 0-.937-.751 5.562 5.562 0 0 0-2-.856 2.6 2.6 0 0 0-2.075.467" class="prefix__cls-2" data-name="Path 3643" transform="translate(-32.87 -9421.084)"/>
        <path id="prefix__Path_3644" d="M615.156 320.024c-.237-2.9-.019-78.366.4-81.25a14.664 14.664 0 0 1 1.171-4.33 18.5 18.5 0 0 1 1.88-2.894 347.236 347.236 0 0 0 29.266-47.3" class="prefix__cls-2" data-name="Path 3644" transform="translate(-30.209 -9428.28)"/>
        <path id="prefix__Path_3645" d="M631.41 324.616c-.7-5.757 7.548-73.409 10.412-78.449a54.521 54.521 0 0 1 5.55-7.584l12.069-14.641c2.676-3.246 5.38-6.536 7.177-10.34" class="prefix__cls-2" data-name="Path 3645" transform="translate(-33.4 -9433.63)"/>
        <path id="prefix__Path_3646" d="M674.05 214.543a15.92 15.92 0 0 0 .337 3.417c.633 3.679 14.949 122.992 15.582 126.671" class="prefix__cls-2" data-name="Path 3646" transform="translate(-41.68 -9433.64)"/>
        <path id="prefix__Path_3647" d="M706.813 193.21c1.2 10.784 3.289 134.751 3.635 145.6" class="prefix__cls-2" data-name="Path 3647" transform="translate(-48.041 -9429.77)"/>
        <path id="prefix__Path_3648" d="M460.192 181.307c-4.369-8.725-1.466-19.554 4.047-27.6s13.31-14.2 19.987-21.307 12.5-15.938 12.456-25.7c-.012-2.712-.564-5.584-2.406-7.571-3.643-3.927-10.594-2.338-14.152 1.666-4.526 5.092-5.068 13.067-2 19.149s9.3 10.236 15.967 11.624a17.613 17.613 0 0 0 10.712-.746c5.429-2.422 8.488-8.2 10.6-13.761 5.241-13.765 7.355-28.975 15.605-41.171a47.857 47.857 0 0 1 29.7-19.846c5.187-1.061 10.757-1.2 15.6.939s8.746 6.967 8.611 12.268" class="prefix__cls-2" data-name="Path 3648" transform="translate(.306 -9405.845)"/>
        <path id="prefix__Path_3649" d="M546.634 51.7a3.577 3.577 0 0 0-4.092 5.791 4.7 4.7 0 0 0 1.829 1 5.51 5.51 0 0 0 4.061-.243 4.035 4.035 0 0 0 2.249-3.284 2.45 2.45 0 0 0-.233-1.237 3.2 3.2 0 0 0-1.846-1.376 9.9 9.9 0 0 0-5.289-.425" class="prefix__cls-2" data-name="Path 3649" transform="translate(-15.798 -9405.086)"/>
        <path id="prefix__Path_3650" d="M578.1 74.6l-.5-.567 2.6 4.847c.49.915 1.127 1.937 2.154 2.078a3.275 3.275 0 0 0 1.583-.314q3.018-1.149 5.982-2.435a25.553 25.553 0 0 0-3.734-6.315 1.037 1.037 0 0 0-.564-.429 1.077 1.077 0 0 0-.739.256 25.486 25.486 0 0 1-7.191 3.25" class="prefix__cls-2" data-name="Path 3650" transform="translate(-22.858 -9408.937)"/>
        <path id="prefix__Path_3651" d="M600.236 64.965a1.07 1.07 0 0 0-1.168 1.247 1.264 1.264 0 0 0 1.586.851 1.554 1.554 0 0 0 .986-1.6 1.12 1.12 0 0 0-.2-.565.868.868 0 0 0-1.473.37" class="prefix__cls-2" data-name="Path 3651" transform="translate(-27.022 -9407.628)"/>
        <path id="prefix__Path_3652" d="M614.21 82.209a1.52 1.52 0 1 0 1.018-.636" class="prefix__cls-2" data-name="Path 3652" transform="translate(-29.933 -9410.868)"/>
        <path id="prefix__Path_3653" d="M619.552 54.742a1.216 1.216 0 0 0-1.641-.611 2.8 2.8 0 0 0-1.28 1.46c-.733 1.543-.916 3.6.308 4.788a3.237 3.237 0 0 0 3.7.376 4.9 4.9 0 0 0 2.273-3.136 2.077 2.077 0 0 0-.094-1.61 2.013 2.013 0 0 0-.817-.672 5.878 5.878 0 0 0-4.18-.462" class="prefix__cls-2" data-name="Path 3653" transform="translate(-30.347 -9405.602)"/>
        <path id="prefix__Path_3654" d="M440.079 175.223l.67-2.317c.129-.446.351-.975.812-1.025a1.184 1.184 0 0 1 .671.206l3.594 1.963" class="prefix__cls-2" data-name="Path 3654" transform="translate(3.977 -9426.733)"/>
        <path id="prefix__Path_3655" d="M440.138 175.767a22.716 22.716 0 0 1 4.623 2.7 10.67 10.67 0 0 0 1-3.8" class="prefix__cls-2" data-name="Path 3655" transform="translate(3.967 -9427.236)"/>
        <path id="prefix__Path_3656" d="M448.226 188.148l-.666.016a1.139 1.139 0 0 0 .795 1.615 1.62 1.62 0 0 0 1.371-2.651 1.16 1.16 0 0 0-1.539-.131" class="prefix__cls-2" data-name="Path 3656" transform="translate(2.548 -9429.419)"/>
        <path id="prefix__Path_3657" d="M462.131 161.307c-1.605-.272-3.545-.4-4.56.877a2.966 2.966 0 0 0 .476 3.823 5.935 5.935 0 0 0 7.953-.647 2.919 2.919 0 0 0-.533-4.063 4.567 4.567 0 0 0-1.811-.513c-1.971-.272-4.148-.5-5.8.616" class="prefix__cls-2" data-name="Path 3657" transform="translate(.661 -9424.687)"/>
        <path id="prefix__Path_3658" d="M491.989 54.24a151.944 151.944 0 0 1 15.466-9.314" class="prefix__cls-2" data-name="Path 3658" transform="translate(-6.16 -9403.86)"/>
        <path id="prefix__Path_3659" d="M490.759 56.979a47.289 47.289 0 0 1 6.623 11.089 24.375 24.375 0 0 0 3.085 6.062.678.678 0 0 0 .428.3.7.7 0 0 0 .411-.151q5.853-3.74 11.651-7.567" class="prefix__cls-2" data-name="Path 3659" transform="translate(-5.928 -9406.166)"/>
        <path id="prefix__Path_3660" d="M510.946 44.77a53.95 53.95 0 0 0 4.326 7.757l5.19 8.211" class="prefix__cls-2" data-name="Path 3660" transform="translate(-9.85 -9403.831)"/>
        <path id="prefix__Path_3661" d="M516.734 68.813q2.336-2.2 4.868-4.178" class="prefix__cls-2" data-name="Path 3661" transform="translate(-10.972 -9407.631)"/>
        <path id="prefix__Path_3662" d="M494.77 57.772c.052.1-.169.133-.2.024s.07-.206.158-.277c4.241-3.429 9.258-5.808 13.432-9.321" class="prefix__cls-2" data-name="Path 3662" transform="translate(-6.66 -9404.487)"/>
        <path id="prefix__Path_3663" d="M498.453 59.619l1.556.9c.368.214.837.426 1.193.193a1.17 1.17 0 0 0 .391-.638l.81-2.343c.065-.186.156-.4.347-.445s.38.109.541.235a2.349 2.349 0 0 0 3.7-2.513 4.211 4.211 0 0 0 3.58-1.286" class="prefix__cls-2" data-name="Path 3663" transform="translate(-7.416 -9405.544)"/>
        <path id="prefix__Path_3664" d="M509.194 62.518a24.1 24.1 0 0 1 3.778-2.872" class="prefix__cls-2" data-name="Path 3664" transform="translate(-9.5 -9406.676)"/>
        <path id="prefix__Path_3665" d="M504.073 68.79a1.19 1.19 0 0 0 2.01-.058 5.8 5.8 0 0 0 .234-1.153c.093-.383.4-.781.793-.726a1.567 1.567 0 0 1 .422.174 1.563 1.563 0 0 0 2-.729 1.793 1.793 0 0 1 .319-.6c.419-.391 1.181.01 1.644-.328" class="prefix__cls-2" data-name="Path 3665" transform="translate(-8.506 -9407.771)"/>
        <path id="prefix__Path_3666" d="M516.243 63.233l1.911-1.658" class="prefix__cls-2" data-name="Path 3666" transform="translate(-10.873 -9407.046)"/>
        <path id="prefix__Path_3667" d="M484.538 183.286l5.52 8.777c.057.091.248.136.22.032" class="prefix__cls-2" data-name="Path 3667" transform="translate(-4.694 -9428.771)"/>
        <path id="prefix__Path_3668" d="M483.97 181.707a8.592 8.592 0 0 1 3.379-2.431l10.958-5.422 5.579 9.854c.1.183.119.521-.091.5" class="prefix__cls-2" data-name="Path 3668" transform="translate(-4.601 -9427.068)"/>
        <path id="prefix__Path_3669" d="M492.072 193.705l14.019-7.647" class="prefix__cls-2" data-name="Path 3669" transform="translate(-6.174 -9429.274)"/>
        <path id="prefix__Path_3670" d="M485.78 182.633q6.557-4.3 13.448-8.055" class="prefix__cls-2" data-name="Path 3670" transform="translate(-4.945 -9427.206)"/>
        <path id="prefix__Path_3671" d="M488.393 184.9l1.575.983a.933.933 0 0 0 .512.192c.314-.014.519-.324.671-.6l1.719-3.109c.559.653 1.381 1.359 2.172 1.023a2.113 2.113 0 0 0 .956-1.286l.573-1.453a.686.686 0 0 1 .317-.421.838.838 0 0 1 .486.029 1.745 1.745 0 0 0 1.445-.351" class="prefix__cls-2" data-name="Path 3671" transform="translate(-5.452 -9428.173)"/>
        <path id="prefix__Path_3672" d="M497.824 187.782a11.262 11.262 0 0 0 3.246-2.746" class="prefix__cls-2" data-name="Path 3672" transform="translate(-7.281 -9429.108)"/>
        <path id="prefix__Path_3673" d="M337.928 270.988a17.6 17.6 0 0 1 4.186-6.755 37.956 37.956 0 0 1 12.217-8.864c2.5-1.136 5.119-2 7.567-3.239a14.777 14.777 0 0 0 6.184-5.273c2-3.326 2.057-7.751 4.774-10.518a11.648 11.648 0 0 1 6.381-2.869 15.47 15.47 0 0 1 5.857-.113 7.871 7.871 0 0 1 4.906 3.014 9.453 9.453 0 0 1 1.4 3.739 14.19 14.19 0 0 1-.858 8.515 9.373 9.373 0 0 1-6.452 5.332" class="prefix__cls-2" data-name="Path 3673" transform="translate(24.086 -9437.589)"/>
        <path id="prefix__Path_3674" d="M336.681 276.862c-.808 3.541-3.317 6.44-4.619 9.83a15.036 15.036 0 0 0 .04 10.821 14.537 14.537 0 0 0 7.444 7.819 25.934 25.934 0 0 0 4.573 1.435 23.741 23.741 0 0 0 8 .924 25.208 25.208 0 0 0 6.336-1.807c3.431-1.318 6.928-2.71 9.686-5.143 3.863-3.408 5.826-8.448 7.381-13.363a54.768 54.768 0 0 0 1.8-6.911c1.037-5.824.579-12.006 2.924-17.435" class="prefix__cls-2" data-name="Path 3674" transform="translate(25.396 -9442.903)"/>
        <path id="prefix__Path_3675" d="M394.318 260.434a3.766 3.766 0 0 0-.543-1.4 2.152 2.152 0 0 0-1.591-1.079 1.5 1.5 0 0 0-1.343.721 1.908 1.908 0 0 0-.242.933 2.686 2.686 0 0 0 2.873 2.742c.065 0 .154-.058.115-.111" class="prefix__cls-2" data-name="Path 3675" transform="translate(14.011 -9442.238)"/>
        <path id="prefix__Path_3676" d="M392.745 260.426a.572.572 0 0 0 .526.776" class="prefix__cls-2" data-name="Path 3676" transform="translate(13.609 -9442.705)"/>
        <path id="prefix__Path_3677" d="M402.228 247.751l4.741 3.131c.125.082.261.184.273.332a.485.485 0 0 1-.158.337 4.485 4.485 0 0 0-1.387 2.074 3.945 3.945 0 0 0 .859 2.4 5.5 5.5 0 0 1 .852 3.955 4.813 4.813 0 0 1-2.708 3.038 13.416 13.416 0 0 1-4.065 1q-3.035.4-6.084.692" class="prefix__cls-2" data-name="Path 3677" transform="translate(13.255 -9440.334)"/>
        <path id="prefix__Path_3678" d="M397.014 269.144l.1 3.828a25.613 25.613 0 0 1-.315 5.96c-.013.06-.037.131-.1.139s-.071-.116-.015-.095" class="prefix__cls-2" data-name="Path 3678" transform="translate(12.855 -9444.223)"/>
        <path id="prefix__Path_3679" d="M397.907 266.554q5.465-1.144 10.891-2.466a12.661 12.661 0 0 0 3.653-1.308 11.414 11.414 0 0 0 2.455-2.2 48.946 48.946 0 0 0 3.539-4.431c.911-1.287 1.76-2.616 2.644-3.922a170.5 170.5 0 0 1 12.717-15.881" class="prefix__cls-2" data-name="Path 3679" transform="translate(12.614 -9438.21)"/>
        <path id="prefix__Path_3680" d="M401.551 287.465l13.4-10.932c4.154-3.389 8.359-6.831 11.5-11.177 1.2-1.652 2.225-3.419 3.252-5.181l9.737-16.71a3 3 0 0 0 .59-2.359 2.767 2.767 0 0 0-.815-1.08 21.5 21.5 0 0 0-5.215-3.568" class="prefix__cls-2" data-name="Path 3680" transform="translate(11.468 -9438.108)"/>
        <path id="prefix__Path_3681" d="M440.331 239.177a15.539 15.539 0 0 1 6.632 3.953c.108.109.26.229.4.162" class="prefix__cls-2" data-name="Path 3681" transform="translate(3.928 -9438.858)"/>
        <path id="prefix__Path_3682" d="M441.878 233.778c2.922-3.376 4.572-7.755 7.736-10.905a24.667 24.667 0 0 1-1.216 5.595c-.384 1.12-.837 2.408-.229 3.425.263.441.721.814.729 1.328a1.87 1.87 0 0 1-.437 1.008 8.291 8.291 0 0 0-1.372 4.989" class="prefix__cls-2" data-name="Path 3682" transform="translate(3.624 -9435.863)"/>
        <path id="prefix__Path_3683" d="M388.892 281.431c2.371-.04 4.877-.024 6.919 1.182a8.656 8.656 0 0 1 3.732 5.471 21.314 21.314 0 0 1 .277 6.769 81.872 81.872 0 0 1-4.934 22.162" class="prefix__cls-2" data-name="Path 3683" transform="translate(14.337 -9446.262)"/>
        <path id="prefix__Path_3684" d="M396.287 326.752l26.652-.2a2 2 0 0 1 1.127.214 1.866 1.866 0 0 1 .63.933 12.663 12.663 0 0 1-1.475 11.758" class="prefix__cls-2" data-name="Path 3684" transform="translate(12.923 -9454.534)"/>
        <path id="prefix__Path_3685" d="M369.183 314.758a106.351 106.351 0 0 0 2.031 19.3 14.537 14.537 0 0 0 1.781 5.177 4.618 4.618 0 0 0 1.529 1.54 6.29 6.29 0 0 0 2.928.6c7.442.26 14.875-.531 22.279-1.322l6.937-.742c4.074-.435 8.32-.93 11.753-3.171" class="prefix__cls-2" data-name="Path 3685" transform="translate(18.107 -9452.31)"/>
        <path id="prefix__Path_3686" d="M405.362 319.573a150.4 150.4 0 0 1 10.508-19.738c1.552-2.455 3.2-4.923 3.924-7.736" class="prefix__cls-2" data-name="Path 3686" transform="translate(11.187 -9448.235)"/>
        <path id="prefix__Path_3687" d="M423.043 292.027q3.294.2 6.56.7a20.39 20.39 0 0 1 4.243 1.011c1 .386 1.948.9 2.931 1.338a29.528 29.528 0 0 0 4.539 1.49q3.26.841 6.585 1.385" class="prefix__cls-2" data-name="Path 3687" transform="translate(7.284 -9448.368)"/>
        <path id="prefix__Path_3688" d="M450.909 299.018a119.742 119.742 0 0 1-12.358 23.512" class="prefix__cls-2" data-name="Path 3688" transform="translate(4.269 -9449.507)"/>
        <path id="prefix__Path_3689" d="M432.808 329.544a6.538 6.538 0 0 0 2.827-1.516c.252-.23.542-.5.878-.447a1.512 1.512 0 0 1 .643.417c1.046.837 2.606.259 3.7-.516a1.423 1.423 0 0 1 .866-.368.882.882 0 0 1 .732.71 2.026 2.026 0 0 1-.118 1.074 6.02 6.02 0 0 1-2.371 3.09 7.476 7.476 0 0 0-1.652 1.174c-1.171 1.355-.652 3.875-2.212 4.751a3.352 3.352 0 0 1-1.437.326q-1.43.1-2.864.061c-.49-.012-1.076-.1-1.281-.543" class="prefix__cls-2" data-name="Path 3689" transform="translate(5.837 -9454.648)"/>
        <path id="prefix__Path_3690" d="M452.039 299.1a7.1 7.1 0 0 0 1.643 3.562.986.986 0 0 1 .3.54.929.929 0 0 1-.216.553 62.578 62.578 0 0 0-7.251 14.759 11.148 11.148 0 0 1-1.472 3.268" class="prefix__cls-2" data-name="Path 3690" transform="translate(3.005 -9449.528)"/>
        <path id="prefix__Path_3691" d="M409.69 320.737c3.825-8.565 11.527-15.216 14.009-24.263a155.05 155.05 0 0 1 17.126 5.242c-3.76 7.511-7.544 15.062-12.5 21.842" class="prefix__cls-2" data-name="Path 3691" transform="translate(9.885 -9449.023)"/>
        <path id="prefix__Path_3692" d="M413.042 321.695q2.423-3 5.128-5.761a9.188 9.188 0 0 1 3.361-2.466c.416-.144.961-.193 1.216.167a1.154 1.154 0 0 1 .149.646l.1 3.156a1.357 1.357 0 0 0 .317 1.012c.413.362 1.055.1 1.514-.2a26.438 26.438 0 0 0 3.76-3.2l8.755-8.439" class="prefix__cls-2" data-name="Path 3692" transform="translate(9.236 -9450.932)"/>
        <path id="prefix__Path_3693" d="M422.828 344.367a38.74 38.74 0 0 0 2.78 4.547.447.447 0 0 0 .231.2.429.429 0 0 0 .331-.107 6.634 6.634 0 0 0 1.824-2.05 11.1 11.1 0 0 0 1.58-6.366" class="prefix__cls-2" data-name="Path 3693" transform="translate(7.847 -9457.097)"/>
        <path id="prefix__Path_3694" d="M426.851 349.572a8.029 8.029 0 0 0 1.286-.569 13.881 13.881 0 0 0 4.363-3.311 6.975 6.975 0 0 0 1.7-5.1" class="prefix__cls-2" data-name="Path 3694" transform="translate(7.078 -9457.093)"/>
        <path id="prefix__Path_3695" d="M340.7 317.583c-1.913 1.465-2.509 4.038-3.064 6.385a100.233 100.233 0 0 1-11.971 29.1c3.381.04 6.571 1.469 9.871 2.2a41.723 41.723 0 0 0 8.142.793c9.6.213 19.416-.577 28.256-4.329a33.974 33.974 0 0 0 5.708-3.038 9.272 9.272 0 0 0 2.969-2.861 4.053 4.053 0 0 0 .218-3.967" class="prefix__cls-2" data-name="Path 3695" transform="translate(26.431 -9452.721)"/>
        <path id="prefix__Path_3696" d="M392.729 354.221c1.338-.45 2.9-.879 4.082-.115a4.671 4.671 0 0 1 1.047 1.042 150.427 150.427 0 0 1 9.154 12.6 61.258 61.258 0 0 1 3.527 6c.806 1.613 1.5 3.282 2.309 4.894.7 1.394 1.486 2.743 2.272 4.091 3.219 5.521 20.3 28.035 23.523 33.556" class="prefix__cls-2" data-name="Path 3696" transform="translate(13.603 -9458.95)"/>
        <path id="prefix__Path_3697" d="M426.709 350.97a1.619 1.619 0 0 0 .6 1.715 4.726 4.726 0 0 0 1.762.769l2.16.609a4.808 4.808 0 0 1 1.3.506c1.258.8 1.5 2.509 1.578 4q.209 3.8.143 7.613" class="prefix__cls-2" data-name="Path 3697" transform="translate(7.117 -9458.909)"/>
        <path id="prefix__Path_3698" d="M427.358 352.927l1.24 1.884a12.15 12.15 0 0 1 1.308 2.344c.342.907 23.5 55.283 24.157 55.992" class="prefix__cls-2" data-name="Path 3698" transform="translate(6.44 -9458.841)"/>
        <path id="prefix__Path_3699" d="M449.577 430.562a13.582 13.582 0 0 1 8.735-3.037" class="prefix__cls-2" data-name="Path 3699" transform="translate(2.122 -9472.803)"/>
        <path id="prefix__Path_3700" d="M449.179 431.122c.56.488.717 1.495 1.45 1.6a1.5 1.5 0 0 0 .678-.112l15.735-5.184" class="prefix__cls-2" data-name="Path 3700" transform="translate(2.191 -9472.764)"/>
        <path id="prefix__Path_3701" d="M459.853 427.777c3.282-.509 6.611-1.493 9.864-.827a8.311 8.311 0 0 1-2.357 1.174" class="prefix__cls-2" data-name="Path 3701" transform="translate(.117 -9472.675)"/>
        <path id="prefix__Path_3702" d="M332.843 363.226a25.524 25.524 0 0 0 3.95 21.4 15.583 15.583 0 0 0 6.637 5.524 18.4 18.4 0 0 0 6.878.992 51.015 51.015 0 0 0 17.61-3.275c2.421-.913 4.769-2.01 7.114-3.106 7.469-3.489 14.954-6.987 22.042-11.2" class="prefix__cls-2" data-name="Path 3702" transform="translate(25.22 -9461.002)"/>
        <path id="prefix__Path_3703" d="M410.079 377.689c-.053-.1-.187.048-.194.163-.215 3.161-1.147 66.5-1.362 69.663" class="prefix__cls-2" data-name="Path 3703" transform="translate(10.582 -9463.142)"/>
        <path id="prefix__Path_3704" d="M428.127 404.139c-.419 2.778-8.6 49.648-8.907 52.441" class="prefix__cls-2" data-name="Path 3704" transform="translate(8.537 -9468.075)"/>
        <path id="prefix__Path_3705" d="M408.65 464.512l2.515.911a19.24 19.24 0 0 1 5.989 3" class="prefix__cls-2" data-name="Path 3705" transform="translate(10.558 -9479.458)"/>
        <path id="prefix__Path_3706" d="M407.832 464.651a17.246 17.246 0 0 1-.156 3.583" class="prefix__cls-2" data-name="Path 3706" transform="translate(10.744 -9479.487)"/>
        <path id="prefix__Path_3707" d="M419.1 469.313a16.459 16.459 0 0 1 6.695 8.207 2.2 2.2 0 0 1 .18 1.289" class="prefix__cls-2" data-name="Path 3707" transform="translate(8.559 -9480.262)"/>
        <path id="prefix__Path_3708" d="M407.5 469.407c.89.014 15.775 8.675 16.264 9.42" class="prefix__cls-2" data-name="Path 3708" transform="translate(10.779 -9480.28)"/>
        <path id="prefix__Path_3709" d="M364.313 379.614c-1.487.074-96.89 0-96.89 0V262H122.734V128.217H-38.321" class="prefix__cls-2" data-name="Path 3709" transform="translate(55.458 -9449.284)"/>
        <path id="prefix__Path_3710" d="M908.1 218.45a14.857 14.857 0 0 1 1.651-7.254 6.4 6.4 0 0 0 1.017-2.724c.02-1.246-.822-2.311-1.472-3.373a12.45 12.45 0 0 1-1.245-2.735 3.634 3.634 0 0 1-.212-1.684 1.527 1.527 0 0 1 1.025-1.254 2.2 2.2 0 0 1 1.937.856 15.977 15.977 0 0 1 2.67 3.5c.2.359.519.786.916.68a.949.949 0 0 0 .421-.319 15 15 0 0 1 3.269-2.7 1.686 1.686 0 0 1 1.611-.3c.648.351.592 1.322.248 1.975a5.727 5.727 0 0 0-.958 1.973 3.3 3.3 0 0 0 1.148 2.328l2.464 2.743a14.28 14.28 0 0 1 2.519 3.444 4.831 4.831 0 0 1 .128 4.141c-1.441 2.831-5.892 2.754-7.609 5.426a12.353 12.353 0 0 0-.877 1.966 4.908 4.908 0 0 1-3.054 3.093 4.115 4.115 0 0 1-3.3-.793 9.828 9.828 0 0 1-2.309-2.608 5.365 5.365 0 0 0 4.057-.1 3.346 3.346 0 0 0 .732-5.026 6.19 6.19 0 0 0-1.842-1.16 4.411 4.411 0 0 0-2.46-.6c-1.392.209-2.226 1.6-3.219 2.6a7.027 7.027 0 0 1-5.156 2.045" class="prefix__cls-2" data-name="Path 3710" transform="translate(-86.252 -9431.584)"/>
        <path id="prefix__Path_3711" d="M910.579 226.076a2.263 2.263 0 0 1 1.717 1.836" class="prefix__cls-2" data-name="Path 3711" transform="translate(-88.236 -9436.507)"/>
        <path id="prefix__Path_3712" d="M897.512 209.941a21.944 21.944 0 0 0-3.984 5.338 5.5 5.5 0 0 0-1.046 3.042 5.245 5.245 0 0 0 1.594 2.961 18.738 18.738 0 0 0 1.917 1.912c.928.78 1.969 1.415 2.887 2.206a22.105 22.105 0 0 1 1.947 1.985l-.22-.352" class="prefix__cls-2" data-name="Path 3712" transform="translate(-84.774 -9433.533)"/>
        <path id="prefix__Path_3713" d="M897.387 209.934l-.3-2.076a.715.715 0 0 1 .015-.388c.1-.236.409-.287.666-.3q3.227-.211 6.463-.231a14.129 14.129 0 0 0 4.022-.387" class="prefix__cls-2" data-name="Path 3713" transform="translate(-85.652 -9432.982)"/>
        <path id="prefix__Path_3714" d="M895.785 213.715a3.408 3.408 0 0 1 1.876-.461 2.468 2.468 0 0 1 1.414.852c1.264 1.4 1.543 3.482 2.812 4.874a6.3 6.3 0 0 0 5.354 1.641" class="prefix__cls-2" data-name="Path 3714" transform="translate(-85.407 -9434.168)"/>
        <path id="prefix__Path_3715" d="M898.759 228.868q.5 6.134 1.478 12.217a50.753 50.753 0 0 1 9.441-2.65l5.976-1.269a18.034 18.034 0 0 1-.868-3.943" class="prefix__cls-2" data-name="Path 3715" transform="translate(-85.977 -9436.962)"/>
        <path id="prefix__Path_3716" d="M897.2 243.524a12.93 12.93 0 0 0 3.8.237" class="prefix__cls-2" data-name="Path 3716" transform="translate(-85.677 -9439.661)"/>
        <path id="prefix__Path_3717" d="M896.629 243.7c-.164.926-.632 1.947-.8 2.873a17.28 17.28 0 0 1-.79 3.44c-.017.046.491-1.241.107-.231-.018.045-.045-.018 0 0" class="prefix__cls-2" data-name="Path 3717" transform="translate(-85.265 -9439.661)"/>
        <path id="prefix__Path_3718" d="M854.664 270.637q6.622-5.015 13.4-9.82c4.927-3.492 10.012-6.949 15.779-8.735 1.332-.412 2.691-.732 4.049-1.051l5.538-1.3" class="prefix__cls-2" data-name="Path 3718" transform="translate(-77.01 -9440.667)"/>
        <path id="prefix__Path_3719" d="M801.435 260.135a36.464 36.464 0 0 1 3.141-5.716c1.493-2.277 3.382-4.61 6.048-5.157 1.67 1.543 31.874 20.18 33.859 21.286" class="prefix__cls-2" data-name="Path 3719" transform="translate(-66.632 -9440.58)"/>
        <path id="prefix__Path_3720" d="M801.435 262.707c2.029 1.693 37.148 35.752 39.414 37.11a8.523 8.523 0 0 0 4.69 1.585 9.275 9.275 0 0 0 4.19-1.708c1.8-1.109 31.047-15.117 32.847-16.226" class="prefix__cls-2" data-name="Path 3720" transform="translate(-66.782 -9442.886)"/>
        <path id="prefix__Path_3721" d="M792.444 234.268l.718 6.627a9.9 9.9 0 0 0 4.1 7.738l4.4 4.321" class="prefix__cls-2" data-name="Path 3721" transform="translate(-64.76 -9437.9)"/>
        <path id="prefix__Path_3722" d="M789.4 228.669a2.368 2.368 0 0 0 .751 1.5l7.042 8.233" class="prefix__cls-2" data-name="Path 3722" transform="translate(-64.163 -9436.938)"/>
        <path id="prefix__Path_3723" d="M798.315 245.005a18.186 18.186 0 0 1 .095-3.88 6.106 6.106 0 0 1 1.668-3.437 1.261 1.261 0 0 1 1.144-.442c.629.183.7 1.038.637 1.692l-.468 5.134a1.916 1.916 0 0 0 .027.725 1.5 1.5 0 0 0 .336.55 3.526 3.526 0 0 0 3.333 1.081 6.93 6.93 0 0 0 2.354-1.216l2.383-1.647" class="prefix__cls-2" data-name="Path 3723" transform="translate(-65.903 -9438.479)"/>
        <path id="prefix__Path_3724" d="M807.93 249.147c-.045-.049-.136-.007-.156.057a.3.3 0 0 0 .031.195l.6 1.457" class="prefix__cls-2" data-name="Path 3724" transform="translate(-67.721 -9440.662)"/>
        <path id="prefix__Path_3725" d="M789.193 227.5l3.471-2.056a33.4 33.4 0 0 1 4.881-2.539" class="prefix__cls-2" data-name="Path 3725" transform="translate(-64.123 -9435.924)"/>
        <path id="prefix__Path_3726" d="M799.593 222.907a4.9 4.9 0 0 0 .945 1.533l8.647 10.789a7.386 7.386 0 0 1 1.71 3.007 2.531 2.531 0 0 1-1.344 2.907" class="prefix__cls-2" data-name="Path 3726" transform="translate(-66.162 -9435.859)"/>
        <path id="prefix__Path_3727" d="M793.759 230.557l3.764-2.318" class="prefix__cls-2" data-name="Path 3727" transform="translate(-65 -9436.896)"/>
        <path id="prefix__Path_3728" d="M793.529 231.085a20.345 20.345 0 0 1 1.5 2.608 29.178 29.178 0 0 0 2.869 4.017" class="prefix__cls-2" data-name="Path 3728" transform="translate(-64.956 -9437.388)"/>
        <path id="prefix__Path_3729" d="M798.765 227.962q3.694 5.108 7.681 10" class="prefix__cls-2" data-name="Path 3729" transform="translate(-65.987 -9436.809)"/>
        <path id="prefix__Path_3730" d="M802.666 244.215c.37-.311.747-.615 1.124-.918l3.666-2.957" class="prefix__cls-2" data-name="Path 3730" transform="translate(-66.74 -9439.068)"/>
        <path id="prefix__Path_3731" d="M806.271 244.875c-.114.181.094.442.3.408a.4.4 0 0 0 .284-.493.309.309 0 0 0-.105-.173.243.243 0 0 0-.366.214" class="prefix__cls-2" data-name="Path 3731" transform="translate(-67.423 -9439.849)"/>
        <path id="prefix__Path_3732" d="M784.947 222.441a1.811 1.811 0 0 0 .574-.883A10.484 10.484 0 0 1 789.4 217a15.446 15.446 0 0 1 5.609-2.219" class="prefix__cls-2" data-name="Path 3732" transform="translate(-63.301 -9434.446)"/>
        <path id="prefix__Path_3733" d="M779.625 218.587a3.549 3.549 0 0 1 .715-2.131 18.958 18.958 0 0 1 10.078-7.87 7.167 7.167 0 0 1 3.289-.427" class="prefix__cls-2" data-name="Path 3733" transform="translate(-62.273 -9433.232)"/>
        <path id="prefix__Path_3734" d="M772.274 213.4a26.223 26.223 0 0 1 6.385-7.98 17.9 17.9 0 0 1 4.857-3.014 27.181 27.181 0 0 1 6.086-1.389l2.086-.31" class="prefix__cls-2" data-name="Path 3734" transform="translate(-60.858 -9431.892)"/>
        <path id="prefix__Path_3735" d="M919.859 239.382a47.148 47.148 0 0 1 6.633 7.584c4.665 6.655 7.526 14.39 10.074 22.11q2.245 6.8 4.218 13.693a.535.535 0 0 0-.128-.839" class="prefix__cls-2" data-name="Path 3735" transform="translate(-90.012 -9438.678)"/>
        <path id="prefix__Path_3736" d="M944.672 291c3.668 8.958 2.983 19 3.257 28.677.322 11.4 2.054 22.785 1.2 34.153-.011.154-.045.339-.188.4s-.288-.211-.137-.24" class="prefix__cls-2" data-name="Path 3736" transform="translate(-94.757 -9447.76)"/>
        <path id="prefix__Path_3737" d="M878.309 300.144c-.16-.083-.274.171-.276.352-.12 7.284-.71 14.587-1.088 21.861q-.8 15.36-1.582 30.721c-.066 1.327-.681 4.118-.091 5.288.721 1.427 3.94 1.425 5.337 1.668q3.484.605 7 .964a163.623 163.623 0 0 0 28.389.085c3.029-.214 6.054-.475 9.077-.759a23.06 23.06 0 0 0 6.139-1.154 7.981 7.981 0 0 0 4.592-4.024" class="prefix__cls-2" data-name="Path 3737" transform="translate(-81.435 -9449.403)"/>
        <path id="prefix__Path_3738" d="M928.985 251.571a37.863 37.863 0 0 1 18.476 14.648c1.254 1.871 2.351 3.841 3.447 5.808 2.361 4.237 4.8 8.955 3.817 13.706" class="prefix__cls-2" data-name="Path 3738" transform="translate(-91.756 -9440.918)"/>
        <path id="prefix__Path_3739" d="M945.893 292.059q8.038 1.141 15.964 2.939a13.216 13.216 0 0 1 3.9 1.342 2.787 2.787 0 0 1 1.09 1.032 3.021 3.021 0 0 1 .263 1.4 21.334 21.334 0 0 1-1.254 6.293q-2.791 9.011-5.985 17.889a2.658 2.658 0 0 1-.622 1.116 2.537 2.537 0 0 1-1.9.415 23.4 23.4 0 0 1-9.688-2.813" class="prefix__cls-2" data-name="Path 3739" transform="translate(-94.991 -9448.192)"/>
        <path id="prefix__Path_3740" d="M968.139 297.791c1.486.9 3.081 1.925 3.635 3.571a7.286 7.286 0 0 1-.284 4.218 125.7 125.7 0 0 1-6.82 18.685 3.665 3.665 0 0 1-1.141 1.614c-.954.638-2.227.268-3.305-.12" class="prefix__cls-2" data-name="Path 3740" transform="translate(-97.732 -9449.251)"/>
        <path id="prefix__Path_3741" d="M877.992 374.129c.128 6.017-2.234 158.925-2.108 164.942" class="prefix__cls-2" data-name="Path 3741" transform="translate(-81.009 -9460.922)"/>
        <path id="prefix__Path_3742" d="M924.572 381.892c-1.538 6.306-30.083 152.587-32.364 158.664" class="prefix__cls-2" data-name="Path 3742" transform="translate(-84.723 -9462.406)"/>
        <path id="prefix__Path_3743" d="M947.547 371.08c-.05 6.019-.1 66.151-.15 72.17" class="prefix__cls-2" data-name="Path 3743" transform="translate(-95.278 -9461.943)"/>
        <path id="prefix__Path_3744" d="M982.478 562.67a32.988 32.988 0 0 0-10.059 6.572" class="prefix__cls-2" data-name="Path 3744" transform="translate(-100.065 -9496.981)"/>
        <path id="prefix__Path_3745" d="M960.657 580.074a3.115 3.115 0 0 1-1.237-2.08 2.434 2.434 0 0 1 .761-1.749 6.087 6.087 0 0 1 1.621-1.089 33.828 33.828 0 0 1 7.126-2.591" class="prefix__cls-2" data-name="Path 3745" transform="translate(-97.577 -9498.875)"/>
        <path id="prefix__Path_3746" d="M947.414 460.031a27.97 27.97 0 0 0 2.579 7.658c4.934 10.365 21.852 65.474 27.7 75.35" class="prefix__cls-2" data-name="Path 3746" transform="translate(-95.282 -9477.351)"/>
        <path id="prefix__Path_3747" d="M930.314 443.617a7.846 7.846 0 0 1-.228 2.061c-.667 3.478-3.086 10.56-2.248 12.319 4.934 10.365 40.23 72.026 46.08 81.9" class="prefix__cls-2" data-name="Path 3747" transform="translate(-102.018 -9466.933)"/>
        <path id="prefix__Path_3748" d="M969.818 577.486l6.158-3.5c3.162-1.8 6.328-3.6 9.318-5.669a1.433 1.433 0 0 0 .646-.724 1.454 1.454 0 0 0-.285-1.059l-1.52-2.627a4.907 4.907 0 0 0-1.064-1.414 1.669 1.669 0 0 0-1.657-.338" class="prefix__cls-2" data-name="Path 3748" transform="translate(-99.567 -9496.863)"/>
        <path id="prefix__Path_3749" d="M970.678 572.446a2.673 2.673 0 0 1 1.064-1.26" class="prefix__cls-2" data-name="Path 3749" transform="translate(-99.731 -9498.61)"/>
        <path id="prefix__Path_3750" d="M862.921 580.685c.091.146-.258.194-.281.023s.15-.3.3-.377c6.359-3.462 13.955-3.878 21.155-3.128a4.843 4.843 0 0 1 2.671.849 1.753 1.753 0 0 1 .3 2.5" class="prefix__cls-2" data-name="Path 3750" transform="translate(-78.512 -9499.7)"/>
        <path id="prefix__Path_3751" d="M768.475 582.056c2.271-.329 190.109-.417 192.4-.261l.066.037-.066 113.312h668.182" class="prefix__cls-2" data-name="Path 3751" transform="translate(-61.057 -9500.625)"/>
        <path id="prefix__Path_3752" d="M530.617 357.966h110.714" class="prefix__cls-2" data-name="Path 3752" transform="translate(-13.876 -9460.294)"/>
        <path id="prefix__Path_3753" d="M667.514 358.266c.468 1.609.637 14.862.5 16.532" class="prefix__cls-2" data-name="Path 3753" transform="translate(-40.37 -9460.211)"/>
        <path id="prefix__Path_3754" d="M668.7 378.708c1.736.1 17.837.2 19.572.3" class="prefix__cls-2" data-name="Path 3754" transform="translate(-40.648 -9464.029)"/>
        <path id="prefix__Path_3755" d="M752.957 379.013c.235 1.727.323 17.539.266 19.28" class="prefix__cls-2" data-name="Path 3755" transform="translate(-57.031 -9463.917)"/>
        <path id="prefix__Path_3756" d="M754.125 402.853h47.255" class="prefix__cls-2" data-name="Path 3756" transform="translate(-57.406 -9468.385)"/>
        <path id="prefix__Path_3757" d="M812.623 402.853c-.1.044-.083.845.026.863s.151.151.169.261c.319 1.955.376 24.133.188 26.105" class="prefix__cls-2" data-name="Path 3757" transform="translate(-68.655 -9468.121)"/>
        <path id="prefix__Path_3758" d="M813.113 436.468c1.963 0 50.309-.231 52.272-.231" class="prefix__cls-2" data-name="Path 3758" transform="translate(-68.948 -9474.4)"/>
        <path id="prefix__Path_3759" d="M947.663 436.689c1.971.042 69.169-.131 71.1-.516" class="prefix__cls-2" data-name="Path 3759" transform="translate(-95.329 -9474.387)"/>
        <path id="prefix__Path_3760" d="M574.611 420.77c9.424-12.708 25.2-19.455 40.895-21.347s31.55.5 47.17 2.92 31.461 4.868 47.166 3.087a122.563 122.563 0 0 0 28.631-7.295 83.644 83.644 0 0 0 17.143-8.217c10.594-6.988 18.289-17.49 25.749-27.764" class="prefix__cls-2" data-name="Path 3760" transform="translate(-22.808 -9460.504)"/>
        <path id="prefix__Path_3761" d="M761.872 380.565L763 384.33a2.764 2.764 0 0 0 1.1 1.779 2.529 2.529 0 0 0 1.512.138 16.954 16.954 0 0 0 6.121-2.033" class="prefix__cls-2" data-name="Path 3761" transform="translate(-58.798 -9464.317)"/>
        <path id="prefix__Path_3762" d="M760.128 379.551l8.634-2.852a.939.939 0 0 1 .618-.057c.291.11.394.462.459.767l1.167 5.535" class="prefix__cls-2" data-name="Path 3762" transform="translate(-58.461 -9463.6)"/>
        <path id="prefix__Path_3763" d="M789.948 383.782a.864.864 0 0 0-.767 1.144 1.171 1.171 0 0 0 1.347.648 1.857 1.857 0 0 0 1.188-1.04 1.517 1.517 0 0 0 .175-.783 1.113 1.113 0 0 0-1.9-.535" class="prefix__cls-2" data-name="Path 3763" transform="translate(-64.095 -9464.758)"/>
        <path id="prefix__Path_3764" d="M725.912 433.3a2.229 2.229 0 1 0-.277 4.22 2.943 2.943 0 0 0 1.145-.637 3 3 0 0 0 1.1-1.935 1.885 1.885 0 0 0-1.005-1.888 1.382 1.382 0 0 0-1.848.788" class="prefix__cls-2" data-name="Path 3764" transform="translate(-51.172 -9473.766)"/>
        <path id="prefix__Path_3765" d="M747.493 452.577c-2.794-.146-5.673-.279-8.311.655s-5.005 3.213-5.163 6.011a10.786 10.786 0 0 0 .539 3.393l1.84 6.787a5.881 5.881 0 0 0 1.048 2.385 4.942 4.942 0 0 0 3.535 1.36c5.567.326 10.79-2.45 15.674-5.145a3.043 3.043 0 0 0 1.216-.979 2.913 2.913 0 0 0 .236-1.77 29.435 29.435 0 0 0-3.662-11.839 5.315 5.315 0 0 0-1.573-1.924 4.8 4.8 0 0 0-2.726-.611 13.441 13.441 0 0 0-7.574 2.481" class="prefix__cls-2" data-name="Path 3765" transform="translate(-53.405 -9476.805)"/>
        <path id="prefix__Path_3766" d="M744.651 435.467a27.257 27.257 0 0 0 5.162-.122" class="prefix__cls-2" data-name="Path 3766" transform="translate(-55.426 -9474.241)"/>
        <path id="prefix__Path_3767" d="M762.545 431.826a18.235 18.235 0 0 0 6.149-1.423" class="prefix__cls-2" data-name="Path 3767" transform="translate(-58.919 -9473.338)"/>
        <path id="prefix__Path_3768" d="M782.278 424.37a22.476 22.476 0 0 0 6.622-2.5" class="prefix__cls-2" data-name="Path 3768" transform="translate(-62.769 -9471.789)"/>
        <path id="prefix__Path_3769" d="M801.987 413.935l3.457-2.675" class="prefix__cls-2" data-name="Path 3769" transform="translate(-66.603 -9469.875)"/>
        <path id="prefix__Path_3770" d="M810.837 404.927a30.882 30.882 0 0 1 4.856-3.742" class="prefix__cls-2" data-name="Path 3770" transform="translate(-68.334 -9468.051)"/>
        <path id="prefix__Path_3771" d="M825.327 389.911a31.346 31.346 0 0 0 3.385-3.965" class="prefix__cls-2" data-name="Path 3771" transform="translate(-71.155 -9465.302)"/>
        <path id="prefix__Path_3772" d="M835.387 377.549l2.176-3.7" class="prefix__cls-2" data-name="Path 3772" transform="translate(-73.113 -9463.124)"/>
    </g>
</svg>
